# xmcd
#
# Track frame offsets:
# 150
# 13141
# 29399
# 37147
# 52923
# 65917
# 94933
# 108495
# 127390
# 143242
#
# Disc length: 2383 seconds
#
#
# Revision: 0
# Processed by: cddbd v1.4PL0 Copyright (c) Steve Scherf et al.
# Submitted via: FreeRIP 2.00 
#
DISCID=99094d0a
DTITLE=Spiritual Harmony - Columna de fuego
DYEAR=1900
DGENRE=Gospel
TTITLE0=Cerca de ti
TTITLE1=Él nos prometió
TTITLE2=I'll fly away
TTITLE3=Gracias
TTITLE4=El criminal en la cruz
TTITLE5=Columna de fuego
TTITLE6=He gave her water
TTITLE7=Amén
TTITLE8=Mientras mas le sirvo
TTITLE9=Medley II
EXTD=gbhxjmncm
EXTT0=
EXTT1=
EXTT2=
EXTT3=
EXTT4=
EXTT5=
EXTT6=
EXTT7=
EXTT8=
EXTT9=
PLAYORDER=
